<svg height="512" viewBox="0 0 64 64" width="512" xmlns="http://www.w3.org/2000/svg"><g id="Twotone"><g id="Color_copy" data-name="Color copy"><g><path d="m45 3h-38a4 4 0 0 0 -4 4v50a4 4 0 0 0 4 4h38a4 4 0 0 0 4-4v-50a4 4 0 0 0 -4-4zm-1 23h-36v-18h36z" fill="#a8dba8"/><g fill="#cff09e"><path d="m8 8v2h30a4 4 0 0 1 4 4v12h2v-18z"/><path d="m26 22a13 13 0 0 1 -13-13v-1h-5v18h36v-4z"/><g><path d="m8 30h6v6h-6z"/><path d="m19 30h6v6h-6z"/><path d="m8 40h6v6h-6z"/><path d="m19 40h6v6h-6z"/><path d="m8 51h6v6h-6z"/><path d="m19 51h6v6h-6z"/></g></g><g><path d="m60.361 40.893a10.507 10.507 0 0 0 -10.507-11.893 8.562 8.562 0 0 0 -5.17 1.737l-.031.024a2.739 2.739 0 0 1 -3.306 0l-.031-.024a8.562 8.562 0 0 0 -5.17-1.737 10.507 10.507 0 0 0 -10.507 11.893 12.828 12.828 0 0 0 1.207 3.8l6.867 13.734a4.578 4.578 0 0 0 2.287 2.217 4.486 4.486 0 0 0 5.342-1.433l1.658-2.211 1.545 2.06a4.728 4.728 0 0 0 2.59 1.8 4.478 4.478 0 0 0 5.1-2.337l6.918-13.835a12.828 12.828 0 0 0 1.208-3.795z" fill="#cff09e"/><path d="m47 22h6a0 0 0 0 1 0 0 6 6 0 0 1 -6 6h-4a0 0 0 0 1 0 0v-2a4 4 0 0 1 4-4z" fill="#79bd9a"/></g></g></g><g id="Stroke_Close_copy_2" data-name="Stroke Close copy 2"><g fill="#3b8686"><path d="m58.742 32.084a11.7 11.7 0 0 0 -8.215-4.047 7 7 0 0 0 3.473-6.037 1 1 0 0 0 -1-1h-3v-14a5.006 5.006 0 0 0 -5-5h-38a5.006 5.006 0 0 0 -5 5v50a5.006 5.006 0 0 0 5 5h41.244a5.446 5.446 0 0 0 4.887-3.026l6.917-13.834a13.807 13.807 0 0 0 1.3-4.1 11.169 11.169 0 0 0 -2.606-8.956zm-15.742-9.053a4.953 4.953 0 0 0 -.9 1.969h-33.1v-16h34zm1 5.969h1.623a9.745 9.745 0 0 0 -1.575.964c-.015.011-.033.014-.048.025zm3-2h-3v-1a3 3 0 0 1 3-3h4.9a5.008 5.008 0 0 1 -4.9 4zm-43 30v-50a3 3 0 0 1 3-3h38a3 3 0 0 1 3 3v14h-1a4.95 4.95 0 0 0 -2 .424v-13.424a1 1 0 0 0 -1-1h-36a1 1 0 0 0 -1 1v18a1 1 0 0 0 1 1h34v2.982c-.026-.017-.055-.024-.08-.043a9.623 9.623 0 0 0 -5.774-1.939 11.71 11.71 0 0 0 -8.888 4.084 11.485 11.485 0 0 0 -1.258 1.803v-3.887a1 1 0 0 0 -1-1h-6a1 1 0 0 0 -1 1v6a1 1 0 0 0 1 1h5.8a11.015 11.015 0 0 0 -.257 2h-5.543a1 1 0 0 0 -1 1v6a1 1 0 0 0 1 1h6a1 1 0 0 0 1-1v-.764l6.819 13.638a6.046 6.046 0 0 0 .75 1.126h-26.569a3 3 0 0 1 -3-3zm20-26v4h-4v-4zm0 10v4h-4v-4zm17.973 19c.054-.065.117-.12.169-.189l.858-1.144.745.993c.092.123.2.225.3.34zm17.4-19.258a11.777 11.777 0 0 1 -1.113 3.5l-6.918 13.839a3.472 3.472 0 0 1 -3.966 1.813 3.739 3.739 0 0 1 -2.032-1.435l-1.544-2.059a1 1 0 0 0 -1.6 0l-1.658 2.211a3.507 3.507 0 0 1 -4.159 1.11 3.571 3.571 0 0 1 -1.775-1.742l-6.867-13.733a11.777 11.777 0 0 1 -1.113-3.5 9.05 9.05 0 0 1 2.146-7.354 9.714 9.714 0 0 1 7.372-3.392 7.637 7.637 0 0 1 4.6 1.558 3.762 3.762 0 0 0 4.544-.024 7.607 7.607 0 0 1 4.564-1.534 9.714 9.714 0 0 1 7.372 3.388 9.05 9.05 0 0 1 2.146 7.354z"/><path d="m49.854 32a1 1 0 0 0 0 2 5.716 5.716 0 0 1 4.338 1.995 5.107 5.107 0 0 1 1.225 4.145 1 1 0 0 0 .838 1.139.983.983 0 0 0 .152.012 1 1 0 0 0 .988-.85 7.081 7.081 0 0 0 -1.687-5.75 7.713 7.713 0 0 0 -5.854-2.691z"/><circle cx="37" cy="55" r="1"/><circle cx="35" cy="52" r="1"/><path d="m14 29h-6a1 1 0 0 0 -1 1v6a1 1 0 0 0 1 1h6a1 1 0 0 0 1-1v-6a1 1 0 0 0 -1-1zm-1 6h-4v-4h4z"/><path d="m14 39h-6a1 1 0 0 0 -1 1v6a1 1 0 0 0 1 1h6a1 1 0 0 0 1-1v-6a1 1 0 0 0 -1-1zm-1 6h-4v-4h4z"/><path d="m14 50h-6a1 1 0 0 0 -1 1v6a1 1 0 0 0 1 1h6a1 1 0 0 0 1-1v-6a1 1 0 0 0 -1-1zm-1 6h-4v-4h4z"/><path d="m25 50h-6a1 1 0 0 0 -1 1v6a1 1 0 0 0 1 1h6a1 1 0 0 0 1-1v-6a1 1 0 0 0 -1-1zm-1 6h-4v-4h4z"/><path d="m14 22a1 1 0 0 0 1-1v-1.586l2.293 2.293a1 1 0 0 0 1.414-1.414l-2.293-2.293 2.293-2.293a1 1 0 0 0 -1.414-1.414l-2.293 2.293v-3.586a1 1 0 0 0 -2 0v8a1 1 0 0 0 1 1z"/><path d="m23 22h2a2 2 0 0 0 2-2 1 1 0 0 0 -2 0h-2v-4h2a1 1 0 0 0 2 0 2 2 0 0 0 -2-2h-2a2 2 0 0 0 -2 2v4a2 2 0 0 0 2 2z"/><path d="m30 22h1a2.981 2.981 0 0 0 2-.78 2.981 2.981 0 0 0 2 .78 1 1 0 0 0 0-2 1 1 0 0 1 -1-1v-3a2 2 0 0 0 -2-2h-3a1 1 0 0 0 0 2h3v1h-2a2 2 0 0 0 -2 2v1a2 2 0 0 0 2 2zm0-3h2a1 1 0 0 1 -1 1h-1z"/><path d="m39 22a1 1 0 0 0 1-1v-8a1 1 0 0 0 -2 0v8a1 1 0 0 0 1 1z"/></g></g></g></svg>